<svg width="130" height="27" viewBox="0 0 130 27" fill="none" xmlns="http://www.w3.org/2000/svg">
<path d="M13.3281 14.6699H15.9531C15.8164 15.9277 15.4564 17.0534 14.873 18.0469C14.2897 19.0404 13.4648 19.8288 12.3984 20.4121C11.332 20.9863 10.0013 21.2734 8.40625 21.2734C7.23958 21.2734 6.17773 21.0547 5.2207 20.6172C4.27279 20.1797 3.45703 19.5599 2.77344 18.7578C2.08984 17.9466 1.5612 16.9759 1.1875 15.8457C0.822917 14.7064 0.640625 13.4395 0.640625 12.0449V10.0625C0.640625 8.66797 0.822917 7.4056 1.1875 6.27539C1.5612 5.13607 2.0944 4.16081 2.78711 3.34961C3.48893 2.53841 4.33203 1.91406 5.31641 1.47656C6.30078 1.03906 7.4082 0.820312 8.63867 0.820312C10.1426 0.820312 11.4141 1.10286 12.4531 1.66797C13.4922 2.23307 14.2988 3.01693 14.873 4.01953C15.4564 5.01302 15.8164 6.16602 15.9531 7.47852H13.3281C13.2005 6.54883 12.9635 5.7513 12.6172 5.08594C12.2708 4.41146 11.7786 3.89193 11.1406 3.52734C10.5026 3.16276 9.66862 2.98047 8.63867 2.98047C7.75456 2.98047 6.97526 3.14909 6.30078 3.48633C5.63542 3.82357 5.07487 4.30208 4.61914 4.92188C4.17253 5.54167 3.83529 6.28451 3.60742 7.15039C3.37956 8.01628 3.26562 8.97786 3.26562 10.0352V12.0449C3.26562 13.0202 3.36589 13.9362 3.56641 14.793C3.77604 15.6497 4.09049 16.4017 4.50977 17.0488C4.92904 17.696 5.46224 18.2064 6.10938 18.5801C6.75651 18.9447 7.52214 19.127 8.40625 19.127C9.52734 19.127 10.4206 18.9492 11.0859 18.5938C11.7513 18.2383 12.2526 17.7279 12.5898 17.0625C12.9362 16.3971 13.1823 15.5996 13.3281 14.6699ZM25.9746 17.9785L31.8398 1.09375H34.6973L27.3281 21H25.291L25.9746 17.9785ZM20.4922 1.09375L26.3027 17.9785L27.0273 21H24.9902L17.6348 1.09375H20.4922ZM51.6641 13.1934H46.3457V11.0469H51.6641C52.694 11.0469 53.528 10.8828 54.166 10.5547C54.804 10.2266 55.2689 9.77083 55.5605 9.1875C55.8613 8.60417 56.0117 7.9388 56.0117 7.19141C56.0117 6.50781 55.8613 5.86523 55.5605 5.26367C55.2689 4.66211 54.804 4.17904 54.166 3.81445C53.528 3.44076 52.694 3.25391 51.6641 3.25391H46.9609V21H44.3223V1.09375H51.6641C53.168 1.09375 54.4395 1.35352 55.4785 1.87305C56.5176 2.39258 57.306 3.11263 57.8438 4.0332C58.3815 4.94466 58.6504 5.98828 58.6504 7.16406C58.6504 8.4401 58.3815 9.5293 57.8438 10.4316C57.306 11.334 56.5176 12.0221 55.4785 12.4961C54.4395 12.9609 53.168 13.1934 51.6641 13.1934ZM64.1328 8.53125V21H61.6035V6.20703H64.0645L64.1328 8.53125ZM68.7539 6.125L68.7402 8.47656C68.5306 8.43099 68.3301 8.40365 68.1387 8.39453C67.9564 8.3763 67.7467 8.36719 67.5098 8.36719C66.9264 8.36719 66.4115 8.45833 65.9648 8.64062C65.5182 8.82292 65.14 9.07812 64.8301 9.40625C64.5202 9.73438 64.2741 10.1263 64.0918 10.582C63.9186 11.0286 63.8047 11.5208 63.75 12.0586L63.0391 12.4688C63.0391 11.5755 63.1257 10.737 63.2988 9.95312C63.4811 9.16927 63.7591 8.47656 64.1328 7.875C64.5065 7.26432 64.9805 6.79036 65.5547 6.45312C66.138 6.10677 66.8307 5.93359 67.6328 5.93359C67.8151 5.93359 68.0247 5.95638 68.2617 6.00195C68.4987 6.03841 68.6628 6.07943 68.7539 6.125ZM70.1484 13.7676V13.4531C70.1484 12.3867 70.3034 11.3978 70.6133 10.4863C70.9232 9.56576 71.3698 8.76823 71.9531 8.09375C72.5365 7.41016 73.2428 6.88151 74.0723 6.50781C74.9017 6.125 75.8314 5.93359 76.8613 5.93359C77.9004 5.93359 78.8346 6.125 79.6641 6.50781C80.5026 6.88151 81.2135 7.41016 81.7969 8.09375C82.3893 8.76823 82.8405 9.56576 83.1504 10.4863C83.4603 11.3978 83.6152 12.3867 83.6152 13.4531V13.7676C83.6152 14.834 83.4603 15.8229 83.1504 16.7344C82.8405 17.6458 82.3893 18.4434 81.7969 19.127C81.2135 19.8014 80.5072 20.3301 79.6777 20.7129C78.8574 21.0866 77.9277 21.2734 76.8887 21.2734C75.8496 21.2734 74.9154 21.0866 74.0859 20.7129C73.2565 20.3301 72.5456 19.8014 71.9531 19.127C71.3698 18.4434 70.9232 17.6458 70.6133 16.7344C70.3034 15.8229 70.1484 14.834 70.1484 13.7676ZM72.6777 13.4531V13.7676C72.6777 14.5059 72.7643 15.2031 72.9375 15.8594C73.1107 16.5065 73.3704 17.0807 73.7168 17.582C74.0723 18.0833 74.5143 18.4798 75.043 18.7715C75.5716 19.054 76.1868 19.1953 76.8887 19.1953C77.5814 19.1953 78.1875 19.054 78.707 18.7715C79.2357 18.4798 79.6732 18.0833 80.0195 17.582C80.3659 17.0807 80.6257 16.5065 80.7988 15.8594C80.9811 15.2031 81.0723 14.5059 81.0723 13.7676V13.4531C81.0723 12.724 80.9811 12.0358 80.7988 11.3887C80.6257 10.7324 80.3613 10.1536 80.0059 9.65234C79.6595 9.14193 79.222 8.74089 78.6934 8.44922C78.1738 8.15755 77.5632 8.01172 76.8613 8.01172C76.1686 8.01172 75.5579 8.15755 75.0293 8.44922C74.5098 8.74089 74.0723 9.14193 73.7168 9.65234C73.3704 10.1536 73.1107 10.7324 72.9375 11.3887C72.7643 12.0358 72.6777 12.724 72.6777 13.4531ZM86.8555 6.20703H89.3984V22.7637C89.3984 23.666 89.2526 24.4316 88.9609 25.0605C88.6784 25.6895 88.25 26.1634 87.6758 26.4824C87.1107 26.8105 86.3952 26.9746 85.5293 26.9746C85.3014 26.9746 85.0371 26.9518 84.7363 26.9062C84.4264 26.8607 84.1667 26.806 83.957 26.7422L83.9707 24.7051C84.1439 24.7415 84.3398 24.7689 84.5586 24.7871C84.7773 24.8145 84.9688 24.8281 85.1328 24.8281C85.5065 24.8281 85.821 24.7598 86.0762 24.623C86.3314 24.4863 86.5228 24.2676 86.6504 23.9668C86.7871 23.666 86.8555 23.265 86.8555 22.7637V6.20703ZM86.5957 2.2832C86.5957 1.87305 86.7233 1.52669 86.9785 1.24414C87.2337 0.961589 87.6029 0.820312 88.0859 0.820312C88.5781 0.820312 88.9518 0.961589 89.207 1.24414C89.4622 1.52669 89.5898 1.87305 89.5898 2.2832C89.5898 2.67513 89.4622 3.01237 89.207 3.29492C88.9518 3.56836 88.5781 3.70508 88.0859 3.70508C87.6029 3.70508 87.2337 3.56836 86.9785 3.29492C86.7233 3.01237 86.5957 2.67513 86.5957 2.2832ZM99.625 21.2734C98.5951 21.2734 97.6608 21.1003 96.8223 20.7539C95.9928 20.3984 95.2773 19.9017 94.6758 19.2637C94.0833 18.6257 93.6276 17.8691 93.3086 16.9941C92.9896 16.1191 92.8301 15.1621 92.8301 14.123V13.5488C92.8301 12.3457 93.0078 11.2747 93.3633 10.3359C93.7188 9.38802 94.2018 8.58594 94.8125 7.92969C95.4232 7.27344 96.1159 6.77669 96.8906 6.43945C97.6654 6.10221 98.4674 5.93359 99.2969 5.93359C100.354 5.93359 101.266 6.11589 102.031 6.48047C102.806 6.84505 103.439 7.35547 103.932 8.01172C104.424 8.65885 104.788 9.42448 105.025 10.3086C105.262 11.1836 105.381 12.1406 105.381 13.1797V14.3145H94.334V12.25H102.852V12.0586C102.815 11.4023 102.678 10.7643 102.441 10.1445C102.214 9.52474 101.849 9.01432 101.348 8.61328C100.846 8.21224 100.163 8.01172 99.2969 8.01172C98.7227 8.01172 98.194 8.13477 97.7109 8.38086C97.2279 8.61784 96.8132 8.97331 96.4668 9.44727C96.1204 9.92122 95.8516 10.5 95.6602 11.1836C95.4688 11.8672 95.373 12.6556 95.373 13.5488V14.123C95.373 14.8249 95.4688 15.4857 95.6602 16.1055C95.8607 16.7161 96.1478 17.2539 96.5215 17.7188C96.9043 18.1836 97.3646 18.5482 97.9023 18.8125C98.4492 19.0768 99.069 19.209 99.7617 19.209C100.655 19.209 101.411 19.0267 102.031 18.6621C102.651 18.2975 103.193 17.8099 103.658 17.1992L105.189 18.416C104.87 18.8991 104.465 19.3594 103.973 19.7969C103.48 20.2344 102.874 20.5898 102.154 20.8633C101.443 21.1367 100.6 21.2734 99.625 21.2734ZM114.254 19.1953C114.855 19.1953 115.411 19.0723 115.922 18.8262C116.432 18.5801 116.852 18.2428 117.18 17.8145C117.508 17.377 117.695 16.8802 117.74 16.3242H120.146C120.101 17.1992 119.805 18.015 119.258 18.7715C118.72 19.5189 118.014 20.125 117.139 20.5898C116.264 21.0456 115.302 21.2734 114.254 21.2734C113.142 21.2734 112.171 21.0775 111.342 20.6855C110.521 20.2936 109.838 19.7559 109.291 19.0723C108.753 18.3887 108.348 17.6048 108.074 16.7207C107.81 15.8275 107.678 14.8841 107.678 13.8906V13.3164C107.678 12.3229 107.81 11.3841 108.074 10.5C108.348 9.60677 108.753 8.81836 109.291 8.13477C109.838 7.45117 110.521 6.91341 111.342 6.52148C112.171 6.12956 113.142 5.93359 114.254 5.93359C115.411 5.93359 116.423 6.17057 117.289 6.64453C118.155 7.10938 118.834 7.7474 119.326 8.55859C119.827 9.36068 120.101 10.2721 120.146 11.293H117.74C117.695 10.6823 117.521 10.1309 117.221 9.63867C116.929 9.14648 116.528 8.75456 116.018 8.46289C115.516 8.16211 114.928 8.01172 114.254 8.01172C113.479 8.01172 112.827 8.16667 112.299 8.47656C111.779 8.77734 111.365 9.1875 111.055 9.70703C110.754 10.2174 110.535 10.7871 110.398 11.416C110.271 12.0358 110.207 12.6693 110.207 13.3164V13.8906C110.207 14.5378 110.271 15.1758 110.398 15.8047C110.526 16.4336 110.74 17.0033 111.041 17.5137C111.351 18.0241 111.766 18.4342 112.285 18.7441C112.814 19.0449 113.47 19.1953 114.254 19.1953ZM129.184 6.20703V8.14844H121.186V6.20703H129.184ZM123.893 2.61133H126.422V17.3359C126.422 17.8372 126.499 18.2155 126.654 18.4707C126.809 18.7259 127.01 18.8945 127.256 18.9766C127.502 19.0586 127.766 19.0996 128.049 19.0996C128.258 19.0996 128.477 19.0814 128.705 19.0449C128.942 18.9993 129.12 18.9629 129.238 18.9355L129.252 21C129.051 21.0638 128.787 21.123 128.459 21.1777C128.14 21.2415 127.753 21.2734 127.297 21.2734C126.677 21.2734 126.107 21.1504 125.588 20.9043C125.068 20.6582 124.654 20.248 124.344 19.6738C124.043 19.0905 123.893 18.3066 123.893 17.3223V2.61133Z" fill="black"/>
</svg>
